{
  "accessors": [
    {
      "bufferView": 2,
      "componentType": 5126,
      "count": 128,
      "max": [
        0.05034085363149643,
        1.396789789199829,
        0.09430230408906937
      ],
      "min": [
        -0.050080135464668274,
        1.3646352291107178,
        0.08691821992397308
      ],
      "type": "VEC3"
    },
    {
      "bufferView": 2,
      "byteOffset": 1536,
      "componentType": 5126,
      "count": 128,
      "max": [
        0.5557902455329895,
        0.28901487588882446,
        0.9989123940467834
      ],
      "min": [
        -0.5558112859725952,
        -0.42166224122047424,
        0.8250565528869629
      ],
      "type": "VEC3"
    },
    {
      "bufferView": 1,
      "componentType": 5126,
      "count": 128,
      "max": [
        0.49492332339286804,
        0.916938304901123
      ],
      "min": [
        0.005652907304465771,
        0.07713964581489563
      ],
      "type": "VEC2"
    },
    {
      "bufferView": 0,
      "componentType": 5125,
      "count": 564,
      "type": "SCALAR"
    },
    {
      "bufferView": 2,
      "byteOffset": 3072,
      "componentType": 5126,
      "count": 10640,
      "max": [
        0.08819694817066193,
        1.501008152961731,
        0.12704865634441376
      ],
      "min": [
        -0.08819696307182312,
        1.2982503175735474,
        0.0028563369996845722
      ],
      "type": "VEC3"
    },
    {
      "bufferView": 2,
      "byteOffset": 130752,
      "componentType": 5126,
      "count": 10640,
      "max": [
        0.9983901381492615,
        0.9999997615814209,
        1.0
      ],
      "min": [
        -0.9983879923820496,
        -0.999691367149353,
        -0.9969816207885742
      ],
      "type": "VEC3"
    },
    {
      "bufferView": 1,
      "byteOffset": 1024,
      "componentType": 5126,
      "count": 10640,
      "max": [
        0.9874493479728699,
        0.9840184450149536
      ],
      "min": [
        0.4622192978858948,
        0.1212250143289566
      ],
      "type": "VEC2"
    },
    {
      "bufferView": 0,
      "byteOffset": 2256,
      "componentType": 5125,
      "count": 33840,
      "type": "SCALAR"
    },
    {
      "bufferView": 2,
      "byteOffset": 258432,
      "componentType": 5126,
      "count": 22004,
      "max": [
        0.414349764585495,
        1.4329735040664673,
        0.15589217841625214
      ],
      "min": [
        -0.4143497347831726,
        0.00012737153156194836,
        -0.07741176337003708
      ],
      "type": "VEC3"
    },
    {
      "bufferView": 2,
      "byteOffset": 522480,
      "componentType": 5126,
      "count": 22004,
      "max": [
        0.999953031539917,
        0.9996732473373413,
        0.9999920725822449
      ],
      "min": [
        -0.999953031539917,
        -1.0,
        -0.9999295473098755
      ],
      "type": "VEC3"
    },
    {
      "bufferView": 1,
      "byteOffset": 86144,
      "componentType": 5126,
      "count": 22004,
      "max": [
        0.9812352657318115,
        0.9769119620323181
      ],
      "min": [
        0.006518349051475525,
        0.012537181377410889
      ],
      "type": "VEC2"
    },
    {
      "bufferView": 0,
      "byteOffset": 137616,
      "componentType": 5125,
      "count": 78753,
      "type": "SCALAR"
    },
    {
      "bufferView": 2,
      "byteOffset": 786528,
      "componentType": 5126,
      "count": 5557,
      "max": [
        0.11609974503517151,
        1.5648967027664185,
        0.1511979103088379
      ],
      "min": [
        -0.12190097570419312,
        1.094194769859314,
        -0.11579112708568573
      ],
      "type": "VEC3"
    },
    {
      "bufferView": 2,
      "byteOffset": 853212,
      "componentType": 5126,
      "count": 5557,
      "max": [
        0.9997652173042297,
        0.9901643991470337,
        0.9995009899139404
      ],
      "min": [
        -0.9996398687362671,
        -0.999587893486023,
        -0.9999266862869263
      ],
      "type": "VEC3"
    },
    {
      "bufferView": 1,
      "byteOffset": 262176,
      "componentType": 5126,
      "count": 5557,
      "max": [
        0.5760009288787842,
        0.28321751952171326
      ],
      "min": [
        0.4127938151359558,
        0.009525210596621037
      ],
      "type": "VEC2"
    },
    {
      "bufferView": 0,
      "byteOffset": 452628,
      "componentType": 5125,
      "count": 8424,
      "type": "SCALAR"
    },
    {
      "bufferView": 2,
      "byteOffset": 919896,
      "componentType": 5126,
      "count": 19977,
      "max": [
        0.4151160418987274,
        1.5016814470291138,
        0.15211552381515503
      ],
      "min": [
        -0.4151161015033722,
        -0.0007352313259616494,
        -0.07413499802350998
      ],
      "type": "VEC3"
    },
    {
      "bufferView": 2,
      "byteOffset": 1159620,
      "componentType": 5126,
      "count": 19977,
      "max": [
        0.9999659657478333,
        0.9999996423721313,
        0.9999269843101501
      ],
      "min": [
        -0.9999659657478333,
        -0.996507465839386,
        -0.9999944567680359
      ],
      "type": "VEC3"
    },
    {
      "bufferView": 1,
      "byteOffset": 306632,
      "componentType": 5126,
      "count": 19977,
      "max": [
        0.9638242721557617,
        0.3175414502620697
      ],
      "min": [
        0.5889461040496826,
        0.016720622777938843
      ],
      "type": "VEC2"
    },
    {
      "bufferView": 0,
      "byteOffset": 486324,
      "componentType": 5125,
      "count": 73122,
      "type": "SCALAR"
    }
  ],
  "asset": {
    "extras": {
      "author": "Pabler (https://sketchfab.com/pabler)",
      "license": "CC-BY-4.0 (http://creativecommons.org/licenses/by/4.0/)",
      "source": "https://sketchfab.com/3d-models/anime-style-character-78802e50dfe6492192a4d2365a500ff3",
      "title": "Anime Style Character"
    },
    "generator": "Sketchfab-12.45.0",
    "version": "2.0"
  },
  "bufferViews": [
    {
      "buffer": 0,
      "byteLength": 778812,
      "name": "floatBufferViews",
      "target": 34963
    },
    {
      "buffer": 0,
      "byteLength": 466448,
      "byteOffset": 778812,
      "byteStride": 8,
      "name": "floatBufferViews",
      "target": 34962
    },
    {
      "buffer": 0,
      "byteLength": 1399344,
      "byteOffset": 1245260,
      "byteStride": 12,
      "name": "floatBufferViews",
      "target": 34962
    }
  ],
  "buffers": [
    {
      "byteLength": 2644604,
      "uri": "scene.bin"
    }
  ],
  "extensionsUsed": [
    "KHR_materials_unlit"
  ],
  "images": [
    {
      "uri": "textures/FaceBake_baseColor.png"
    },
    {
      "uri": "textures/BodyBake_baseColor.png"
    }
  ],
  "materials": [
    {
      "extensions": {
        "KHR_materials_unlit": {}
      },
      "name": "FaceBake",
      "pbrMetallicRoughness": {
        "baseColorTexture": {
          "index": 0
        },
        "metallicFactor": 0.0
      }
    },
    {
      "extensions": {
        "KHR_materials_unlit": {}
      },
      "name": "BodyBake",
      "pbrMetallicRoughness": {
        "baseColorTexture": {
          "index": 1
        },
        "metallicFactor": 0.0
      }
    }
  ],
  "meshes": [
    {
      "name": "Object_0",
      "primitives": [
        {
          "attributes": {
            "NORMAL": 1,
            "POSITION": 0,
            "TEXCOORD_0": 2
          },
          "indices": 3,
          "material": 0,
          "mode": 4
        }
      ]
    },
    {
      "name": "Object_1",
      "primitives": [
        {
          "attributes": {
            "NORMAL": 5,
            "POSITION": 4,
            "TEXCOORD_0": 6
          },
          "indices": 7,
          "material": 0,
          "mode": 4
        }
      ]
    },
    {
      "name": "Object_2",
      "primitives": [
        {
          "attributes": {
            "NORMAL": 9,
            "POSITION": 8,
            "TEXCOORD_0": 10
          },
          "indices": 11,
          "material": 1,
          "mode": 4
        }
      ]
    },
    {
      "name": "Object_3",
      "primitives": [
        {
          "attributes": {
            "NORMAL": 13,
            "POSITION": 12,
            "TEXCOORD_0": 14
          },
          "indices": 15,
          "material": 0,
          "mode": 4
        }
      ]
    },
    {
      "name": "Object_4",
      "primitives": [
        {
          "attributes": {
            "NORMAL": 17,
            "POSITION": 16,
            "TEXCOORD_0": 18
          },
          "indices": 19,
          "material": 0,
          "mode": 4
        }
      ]
    }
  ],
  "nodes": [
    {
      "children": [
        1
      ],
      "matrix": [
        1.0029866695404053,
        0.0,
        0.0,
        0.0,
        0.0,
        2.227077787831722e-16,
        -1.0029866695404053,
        0.0,
        0.0,
        1.0029866695404053,
        2.227077787831722e-16,
        0.0,
        0.0,
        0.0,
        0.0,
        1.0
      ],
      "name": "Sketchfab_model"
    },
    {
      "children": [
        2
      ],
      "name": "root"
    },
    {
      "children": [
        3,
        5,
        7,
        9,
        11
      ],
      "matrix": [
        1.0,
        0.0,
        0.0,
        0.0,
        0.0,
        2.220446049250313e-16,
        1.0,
        0.0,
        0.0,
        -1.0,
        2.220446049250313e-16,
        0.0,
        0.0,
        0.0,
        0.0,
        1.0
      ],
      "name": "GLTF_SceneRootNode"
    },
    {
      "children": [
        4
      ],
      "name": "Eyes_0"
    },
    {
      "mesh": 0,
      "name": "Object_4"
    },
    {
      "children": [
        6
      ],
      "name": "Face_1"
    },
    {
      "mesh": 1,
      "name": "Object_6"
    },
    {
      "children": [
        8
      ],
      "name": "Body_2"
    },
    {
      "mesh": 2,
      "name": "Object_8"
    },
    {
      "children": [
        10
      ],
      "name": "Hair_3"
    },
    {
      "mesh": 3,
      "name": "Object_10"
    },
    {
      "children": [
        12
      ],
      "name": "Outline_4"
    },
    {
      "mesh": 4,
      "name": "Object_12"
    }
  ],
  "samplers": [
    {
      "magFilter": 9729,
      "minFilter": 9987,
      "wrapS": 10497,
      "wrapT": 10497
    }
  ],
  "scene": 0,
  "scenes": [
    {
      "name": "Sketchfab_Scene",
      "nodes": [
        0
      ]
    }
  ],
  "textures": [
    {
      "sampler": 0,
      "source": 0
    },
    {
      "sampler": 0,
      "source": 1
    }
  ]
}
