{
  "accessors": [
    {
      "bufferView": 2,
      "componentType": 5126,
      "count": 3903,
      "max": [
        0.29309412837028503,
        0.39055296778678894,
        1.5460638999938965
      ],
      "min": [
        -0.29309412837028503,
        -0.47522473335266113,
        -4.153153349761851e-05
      ],
      "type": "VEC3"
    },
    {
      "bufferView": 2,
      "byteOffset": 46836,
      "componentType": 5126,
      "count": 3903,
      "max": [
        0.9999912977218628,
        0.9999957084655762,
        0.9999990463256836
      ],
      "min": [
        -0.9999912977218628,
        -1.0,
        -1.0
      ],
      "type": "VEC3"
    },
    {
      "bufferView": 1,
      "componentType": 5126,
      "count": 3903,
      "max": [
        0.9956949949264526,
        0.9957240223884583
      ],
      "min": [
        0.004827000200748444,
        0.004922032356262207
      ],
      "type": "VEC2"
    },
    {
      "bufferView": 0,
      "componentType": 5125,
      "count": 12468,
      "type": "SCALAR"
    }
  ],
  "asset": {
    "extras": {
      "author": "GremorySaiyan (https://sketchfab.com/GremorySaiyan)",
      "license": "CC-BY-4.0 (http://creativecommons.org/licenses/by/4.0/)",
      "source": "https://sketchfab.com/3d-models/cloth-capricorn-821113a5daf949bba5142211a964f6d9",
      "title": "Cloth Capricorn"
    },
    "generator": "Sketchfab-10.42.0",
    "version": "2.0"
  },
  "bufferViews": [
    {
      "buffer": 0,
      "byteLength": 49872,
      "name": "floatBufferViews",
      "target": 34963
    },
    {
      "buffer": 0,
      "byteLength": 31224,
      "byteOffset": 49872,
      "byteStride": 8,
      "name": "floatBufferViews",
      "target": 34962
    },
    {
      "buffer": 0,
      "byteLength": 93672,
      "byteOffset": 81096,
      "byteStride": 12,
      "name": "floatBufferViews",
      "target": 34962
    }
  ],
  "buffers": [
    {
      "byteLength": 174768,
      "uri": "scene.bin"
    }
  ],
  "images": [
    {
      "uri": "textures/Realistic_Gold_Material_-_Cinema4dMaterial_baseColor.png"
    }
  ],
  "materials": [
    {
      "doubleSided": true,
      "name": "Realistic_Gold_Material_-_Cinema4dMaterial",
      "pbrMetallicRoughness": {
        "baseColorTexture": {
          "index": 0
        },
        "roughnessFactor": 0.1430836201075626
      }
    }
  ],
  "meshes": [
    {
      "name": "Capricornio_Realistic Gold Material - Cinema4dMaterial_0",
      "primitives": [
        {
          "attributes": {
            "NORMAL": 1,
            "POSITION": 0,
            "TEXCOORD_0": 2
          },
          "indices": 3,
          "material": 0,
          "mode": 4
        }
      ]
    }
  ],
  "nodes": [
    {
      "children": [
        1
      ],
      "matrix": [
        1.0,
        0.0,
        0.0,
        0.0,
        0.0,
        2.220446049250313e-16,
        -1.0,
        0.0,
        0.0,
        1.0,
        2.220446049250313e-16,
        0.0,
        0.0,
        0.0,
        0.0,
        1.0
      ],
      "name": "Sketchfab_model"
    },
    {
      "children": [
        2
      ],
      "matrix": [
        1.0,
        0.0,
        0.0,
        0.0,
        0.0,
        0.0,
        1.0,
        0.0,
        0.0,
        -1.0,
        0.0,
        0.0,
        0.0,
        0.0,
        0.0,
        1.0
      ],
      "name": "Cloth Capricornio.fbx"
    },
    {
      "children": [
        3
      ],
      "name": "RootNode"
    },
    {
      "children": [
        4
      ],
      "matrix": [
        100.0,
        0.0,
        0.0,
        0.0,
        0.0,
        2.220446049250313e-14,
        -100.0,
        0.0,
        0.0,
        100.0,
        2.220446049250313e-14,
        0.0,
        0.0,
        0.0,
        0.0,
        1.0
      ],
      "name": "Capricornio"
    },
    {
      "mesh": 0,
      "name": "Capricornio_Realistic Gold Material - Cinema4dMaterial_0"
    }
  ],
  "samplers": [
    {
      "magFilter": 9729,
      "minFilter": 9987,
      "wrapS": 10497,
      "wrapT": 10497
    }
  ],
  "scene": 0,
  "scenes": [
    {
      "name": "Sketchfab_Scene",
      "nodes": [
        0
      ]
    }
  ],
  "textures": [
    {
      "sampler": 0,
      "source": 0
    }
  ]
}
