{
  "accessors": [
    {
      "bufferView": 2,
      "componentType": 5126,
      "count": 1137,
      "max": [
        1,
        0.53999990224838257,
        1
      ],
      "min": [
        -1,
        -2.8000001907348633,
        -1
      ],
      "type": "VEC3"
    },
    {
      "bufferView": 2,
      "byteOffset": 13644,
      "componentType": 5126,
      "count": 1137,
      "max": [
        1,
        1,
        1
      ],
      "min": [
        -1,
        -1,
        -1
      ],
      "type": "VEC3"
    },
    {
      "bufferView": 1,
      "componentType": 5126,
      "count": 1137,
      "max": [
        1,
        1
      ],
      "min": [
        0,
        0
      ],
      "type": "VEC2"
    },
    {
      "bufferView": 0,
      "componentType": 5125,
      "count": 5112,
      "max": [
        1136
      ],
      "min": [
        0
      ],
      "type": "SCALAR"
    },
    {
      "bufferView": 2,
      "byteOffset": 27288,
      "componentType": 5126,
      "count": 200,
      "max": [
        1,
        -0.5,
        1
      ],
      "min": [
        -1,
        -2.3000006675720215,
        -1
      ],
      "type": "VEC3"
    },
    {
      "bufferView": 2,
      "byteOffset": 29688,
      "componentType": 5126,
      "count": 200,
      "max": [
        1,
        1,
        1
      ],
      "min": [
        -1,
        -1,
        -1
      ],
      "type": "VEC3"
    },
    {
      "bufferView": 1,
      "byteOffset": 9096,
      "componentType": 5126,
      "count": 200,
      "max": [
        1,
        1
      ],
      "min": [
        0,
        0.5
      ],
      "type": "VEC2"
    },
    {
      "bufferView": 0,
      "byteOffset": 20448,
      "componentType": 5125,
      "count": 576,
      "max": [
        199
      ],
      "min": [
        0
      ],
      "type": "SCALAR"
    },
    {
      "bufferView": 2,
      "byteOffset": 32088,
      "componentType": 5126,
      "count": 12581,
      "max": [
        0.98689234256744385,
        3.8724801540374756,
        0.98741769790649414
      ],
      "min": [
        -1.1111607551574707,
        -0.99772721529006958,
        -1.520297646522522
      ],
      "type": "VEC3"
    },
    {
      "bufferView": 2,
      "byteOffset": 183060,
      "componentType": 5126,
      "count": 12581,
      "max": [
        0.99981582164764404,
        0.99999880790710449,
        0.99997031688690186
      ],
      "min": [
        -0.99994802474975586,
        -0.99999332427978516,
        -0.99995994567871094
      ],
      "type": "VEC3"
    },
    {
      "bufferView": 3,
      "componentType": 5126,
      "count": 12581,
      "max": [
        1,
        1,
        1,
        1
      ],
      "min": [
        1,
        1,
        1,
        1
      ],
      "type": "VEC4"
    },
    {
      "bufferView": 1,
      "byteOffset": 10696,
      "componentType": 5126,
      "count": 12581,
      "max": [
        1.5121383666992188,
        1.5153303146362305
      ],
      "min": [
        -0.51321673393249512,
        -0.5102536678314209
      ],
      "type": "VEC2"
    },
    {
      "bufferView": 0,
      "byteOffset": 22752,
      "componentType": 5125,
      "count": 71940,
      "max": [
        12580
      ],
      "min": [
        0
      ],
      "type": "SCALAR"
    },
    {
      "bufferView": 2,
      "byteOffset": 334032,
      "componentType": 5126,
      "count": 3242,
      "max": [
        0.86401987075805664,
        3.786264181137085,
        -0.38804799318313599
      ],
      "min": [
        -0.7014319896697998,
        -0.7060924768447876,
        -1.5251394510269165
      ],
      "type": "VEC3"
    },
    {
      "bufferView": 2,
      "byteOffset": 372936,
      "componentType": 5126,
      "count": 3242,
      "max": [
        0.99324315786361694,
        0.91700601577758789,
        0.17817077040672302
      ],
      "min": [
        -0.69864612817764282,
        -0.97667372226715088,
        -0.9999082088470459
      ],
      "type": "VEC3"
    },
    {
      "bufferView": 3,
      "byteOffset": 201296,
      "componentType": 5126,
      "count": 3242,
      "max": [
        1,
        1,
        1,
        1
      ],
      "min": [
        1,
        1,
        1,
        1
      ],
      "type": "VEC4"
    },
    {
      "bufferView": 1,
      "byteOffset": 111344,
      "componentType": 5126,
      "count": 3242,
      "max": [
        1.0000001192092896,
        1.0000022649765015
      ],
      "min": [
        -2.5066250600502826e-05,
        -5.9998689039275632e-07
      ],
      "type": "VEC2"
    },
    {
      "bufferView": 1,
      "byteOffset": 137280,
      "componentType": 5126,
      "count": 3242,
      "max": [
        1.0000001192092896,
        1.0000022649765015
      ],
      "min": [
        -2.5066250600502826e-05,
        -5.9998689039275632e-07
      ],
      "type": "VEC2"
    },
    {
      "bufferView": 0,
      "byteOffset": 310512,
      "componentType": 5125,
      "count": 17535,
      "max": [
        3241
      ],
      "min": [
        0
      ],
      "type": "SCALAR"
    },
    {
      "bufferView": 2,
      "byteOffset": 411840,
      "componentType": 5126,
      "count": 4725,
      "max": [
        1.0328208208084106,
        3.7247872352600098,
        2.0571439266204834
      ],
      "min": [
        -1.5383316278457642,
        -1.0328915119171143,
        -1.1817953586578369
      ],
      "type": "VEC3"
    },
    {
      "bufferView": 2,
      "byteOffset": 468540,
      "componentType": 5126,
      "count": 4725,
      "max": [
        0.99973487854003906,
        0.9999544620513916,
        0.99963605403900146
      ],
      "min": [
        -0.99973392486572266,
        -0.99973392486572266,
        -0.99787181615829468
      ],
      "type": "VEC3"
    },
    {
      "bufferView": 3,
      "byteOffset": 253168,
      "componentType": 5126,
      "count": 4725,
      "max": [
        1,
        1,
        1,
        1
      ],
      "min": [
        1,
        1,
        1,
        1
      ],
      "type": "VEC4"
    },
    {
      "bufferView": 1,
      "byteOffset": 163216,
      "componentType": 5126,
      "count": 4725,
      "max": [
        1.0343910455703735,
        1.8925313949584961
      ],
      "min": [
        0.02083333395421505,
        -0.41624051332473755
      ],
      "type": "VEC2"
    },
    {
      "bufferView": 0,
      "byteOffset": 380652,
      "componentType": 5125,
      "count": 24414,
      "max": [
        4724
      ],
      "min": [
        0
      ],
      "type": "SCALAR"
    },
    {
      "bufferView": 2,
      "byteOffset": 525240,
      "componentType": 5126,
      "count": 945,
      "max": [
        36.903499603271484,
        48.518878936767578,
        34.731460571289062
      ],
      "min": [
        -40.735988616943359,
        -40.299079895019531,
        -37.729366302490234
      ],
      "type": "VEC3"
    },
    {
      "bufferView": 2,
      "byteOffset": 536580,
      "componentType": 5126,
      "count": 945,
      "max": [
        0.95106077194213867,
        1,
        1
      ],
      "min": [
        -0.95106077194213867,
        -1,
        -1
      ],
      "type": "VEC3"
    },
    {
      "bufferView": 1,
      "byteOffset": 201016,
      "componentType": 5126,
      "count": 945,
      "max": [
        1,
        0.47238200902938843
      ],
      "min": [
        0,
        0
      ],
      "type": "VEC2"
    },
    {
      "bufferView": 0,
      "byteOffset": 478308,
      "componentType": 5125,
      "count": 3600,
      "max": [
        944
      ],
      "min": [
        0
      ],
      "type": "SCALAR"
    }
  ],
  "asset": {
    "extras": {
      "author": "SimpleMan (https://sketchfab.com/postal144)",
      "license": "CC-BY-4.0 (http://creativecommons.org/licenses/by/4.0/)",
      "source": "https://sketchfab.com/3d-models/sharingan-in-bottle-598c0dd6a4d2424db83a9939175e215c",
      "title": "Sharingan in Bottle"
    },
    "generator": "Sketchfab-8.77.1",
    "version": "2.0"
  },
  "bufferViews": [
    {
      "buffer": 0,
      "byteLength": 492708,
      "byteOffset": 0,
      "name": "floatBufferViews",
      "target": 34963
    },
    {
      "buffer": 0,
      "byteLength": 208576,
      "byteOffset": 492708,
      "byteStride": 8,
      "name": "floatBufferViews",
      "target": 34962
    },
    {
      "buffer": 0,
      "byteLength": 547920,
      "byteOffset": 701284,
      "byteStride": 12,
      "name": "floatBufferViews",
      "target": 34962
    },
    {
      "buffer": 0,
      "byteLength": 328768,
      "byteOffset": 1249204,
      "byteStride": 16,
      "name": "floatBufferViews",
      "target": 34962
    }
  ],
  "buffers": [
    {
      "byteLength": 1577972,
      "uri": "scene.bin"
    }
  ],
  "images": [
    {
      "uri": "textures/sharingan_baseColor.png"
    },
    {
      "uri": "textures/sharingan_emissive.png"
    }
  ],
  "materials": [
    {
      "doubleSided": true,
      "emissiveFactor": [
        0,
        0,
        0
      ],
      "name": "metal",
      "pbrMetallicRoughness": {
        "baseColorFactor": [
          0.31854700000000002,
          0.31854700000000002,
          0.31854700000000002,
          1
        ],
        "metallicFactor": 0.5,
        "roughnessFactor": 0.29999999999999999
      }
    },
    {
      "alphaMode": "BLEND",
      "doubleSided": false,
      "emissiveFactor": [
        0.10000000000000001,
        0.078353779150000011,
        0
      ],
      "name": "glass_1",
      "pbrMetallicRoughness": {
        "baseColorFactor": [
          1,
          1,
          1,
          0.69999999999999996
        ],
        "metallicFactor": 0.80000000000000004,
        "roughnessFactor": 0.29999999999999999
      }
    },
    {
      "doubleSided": true,
      "emissiveFactor": [
        0.447988,
        0.447988,
        0.447988
      ],
      "name": "eys_whiet",
      "pbrMetallicRoughness": {
        "baseColorFactor": [
          1,
          1,
          1,
          1
        ],
        "metallicFactor": 0,
        "roughnessFactor": 0.10000000000000001
      }
    },
    {
      "alphaMode": "BLEND",
      "doubleSided": true,
      "emissiveFactor": [
        1,
        1,
        1
      ],
      "emissiveTexture": {
        "index": 1,
        "texCoord": 0
      },
      "name": "sharingan",
      "pbrMetallicRoughness": {
        "baseColorFactor": [
          1,
          1,
          1,
          1
        ],
        "baseColorTexture": {
          "index": 0,
          "texCoord": 0
        },
        "metallicFactor": 0,
        "roughnessFactor": 0.10000000000000001
      }
    },
    {
      "doubleSided": true,
      "emissiveFactor": [
        0.019606599999999998,
        0,
        0
      ],
      "name": "bloodeline",
      "pbrMetallicRoughness": {
        "baseColorFactor": [
          0.019606599999999998,
          0,
          0,
          1
        ],
        "metallicFactor": 0,
        "roughnessFactor": 1
      }
    },
    {
      "doubleSided": false,
      "emissiveFactor": [
        0.019606599999999998,
        0.019606599999999998,
        0.019606599999999998
      ],
      "name": "glass_2",
      "pbrMetallicRoughness": {
        "baseColorFactor": [
          0.71817600000000004,
          0.82036100000000001,
          0.99091600000000002,
          1
        ],
        "metallicFactor": 0.80000000000000004,
        "roughnessFactor": 0.10000000000000001
      }
    }
  ],
  "meshes": [
    {
      "primitives": [
        {
          "attributes": {
            "NORMAL": 1,
            "POSITION": 0,
            "TEXCOORD_0": 2
          },
          "indices": 3,
          "material": 0,
          "mode": 4
        }
      ]
    },
    {
      "primitives": [
        {
          "attributes": {
            "NORMAL": 5,
            "POSITION": 4,
            "TEXCOORD_0": 6
          },
          "indices": 7,
          "material": 1,
          "mode": 4
        }
      ]
    },
    {
      "primitives": [
        {
          "attributes": {
            "COLOR_0": 10,
            "NORMAL": 9,
            "POSITION": 8,
            "TEXCOORD_0": 11
          },
          "indices": 12,
          "material": 2,
          "mode": 4
        }
      ]
    },
    {
      "primitives": [
        {
          "attributes": {
            "COLOR_0": 15,
            "NORMAL": 14,
            "POSITION": 13,
            "TEXCOORD_0": 16,
            "TEXCOORD_1": 17
          },
          "indices": 18,
          "material": 3,
          "mode": 4
        }
      ]
    },
    {
      "primitives": [
        {
          "attributes": {
            "COLOR_0": 21,
            "NORMAL": 20,
            "POSITION": 19,
            "TEXCOORD_0": 22
          },
          "indices": 23,
          "material": 4,
          "mode": 4
        }
      ]
    },
    {
      "primitives": [
        {
          "attributes": {
            "NORMAL": 25,
            "POSITION": 24,
            "TEXCOORD_0": 26
          },
          "indices": 27,
          "material": 5,
          "mode": 4
        }
      ]
    }
  ],
  "nodes": [
    {
      "children": [
        1
      ],
      "name": "RootNode (gltf orientation matrix)",
      "rotation": [
        -0.70710678118654746,
        -0,
        -0,
        0.70710678118654757
      ]
    },
    {
      "children": [
        2
      ],
      "name": "RootNode (model correction matrix)"
    },
    {
      "children": [
        3
      ],
      "name": "root"
    },
    {
      "children": [
        4,
        7,
        11
      ],
      "matrix": [
        1,
        0,
        0,
        0,
        0,
        2.2204460492503131e-16,
        1,
        0,
        0,
        -1,
        2.2204460492503131e-16,
        0,
        0,
        0,
        0,
        1
      ],
      "name": "GLTF_SceneRootNode"
    },
    {
      "children": [
        5,
        6
      ],
      "matrix": [
        1,
        0,
        0,
        0,
        0,
        1,
        0,
        0,
        0,
        0,
        1,
        0,
        0,
        1.4000000953674316,
        0,
        1
      ],
      "name": "Circle.001_0"
    },
    {
      "mesh": 0,
      "name": ""
    },
    {
      "mesh": 1,
      "name": ""
    },
    {
      "children": [
        8,
        9,
        10
      ],
      "matrix": [
        -0.19100373536125703,
        0.1258445773483676,
        0.031493259683942322,
        0,
        0.12043245134359067,
        0.1928497813472925,
        -0.040200702396074733,
        0,
        -0.048215222874971396,
        -0.016828967935522122,
        -0.22517368429015991,
        0,
        -0.22788316011428833,
        -0.34101900458335876,
        0,
        1
      ],
      "name": "Sphere.001_2"
    },
    {
      "mesh": 2,
      "name": ""
    },
    {
      "mesh": 3,
      "name": ""
    },
    {
      "mesh": 4,
      "name": ""
    },
    {
      "children": [
        12
      ],
      "matrix": [
        0.020000003278255463,
        0,
        0,
        0,
        0,
        0.020000003278255463,
        0,
        0,
        0,
        0,
        0.020000003278255463,
        0,
        0,
        0,
        0,
        1
      ],
      "name": "Icosphere_3"
    },
    {
      "mesh": 5,
      "name": ""
    }
  ],
  "samplers": [
    {
      "magFilter": 9729,
      "minFilter": 9987,
      "wrapS": 33071,
      "wrapT": 33071
    }
  ],
  "scene": 0,
  "scenes": [
    {
      "name": "OSG_Scene",
      "nodes": [
        0
      ]
    }
  ],
  "textures": [
    {
      "sampler": 0,
      "source": 0
    },
    {
      "sampler": 0,
      "source": 1
    }
  ]
}

